<svg width="25" height="24" viewBox="0 0 25 24" fill="none" xmlns="http://www.w3.org/2000/svg">
<path d="M14.9206 20.8905C19.1036 20.6125 22.4356 17.2332 22.7098 12.9909C22.7634 12.1607 22.7634 11.3009 22.7098 10.4707C22.4356 6.22838 19.1036 2.84913 14.9206 2.57107C13.4935 2.47621 12.0036 2.47641 10.5794 2.57107C6.39639 2.84913 3.06441 6.22838 2.79024 10.4707C2.73659 11.3009 2.73659 12.1607 2.79024 12.9909C2.8901 14.536 3.57343 15.9666 4.37791 17.1746C4.84501 18.0203 4.53674 19.0758 4.05021 19.9978C3.69941 20.6626 3.52401 20.995 3.66484 21.2351C3.80568 21.4752 4.12026 21.4829 4.74943 21.4982C5.99367 21.5285 6.83268 21.1757 7.49868 20.6846C7.8764 20.4061 8.06527 20.2668 8.19544 20.2508C8.3256 20.2348 8.58177 20.3403 9.09401 20.5513C9.5544 20.7409 10.089 20.8579 10.5794 20.8905C12.0036 20.9852 13.4935 20.9854 14.9206 20.8905Z" fill="white" stroke="white" stroke-width="1.5" stroke-linejoin="round"/>
<path d="M8.25 15L10.0919 9.47434C10.1863 9.19107 10.4514 9 10.75 9C11.0486 9 11.3137 9.19107 11.4081 9.47434L13.25 15M16.25 9V15M9.25 13H12.25" stroke="#72B4E9" stroke-width="1.5" stroke-linecap="round" stroke-linejoin="round"/>
</svg>
