<svg width="17" height="20" viewBox="0 0 17 20" fill="none" xmlns="http://www.w3.org/2000/svg">
<path d="M14.2462 10.6359C14.2662 9.07757 15.0828 7.6384 16.4103 6.82257C15.5695 5.6209 14.2103 4.88673 12.7445 4.8409C11.202 4.67923 9.70699 5.7634 8.92115 5.7634C8.12032 5.7634 6.91032 4.85673 5.60699 4.8834C3.89282 4.93923 2.33282 5.89007 1.49865 7.38923C-0.27718 10.4642 1.04699 14.9842 2.74865 17.4701C3.60032 18.6876 4.59449 20.0467 5.89699 19.9992C7.17115 19.9467 7.64699 19.1867 9.18449 19.1867C10.7078 19.1867 11.1545 19.9992 12.4828 19.9684C13.8495 19.9459 14.7112 18.7459 15.5328 17.5167C16.1445 16.6492 16.6153 15.6909 16.927 14.6767C15.3037 13.9901 14.2478 12.3992 14.2462 10.6359Z" fill="black"/>
<path d="M11.7372 3.20583C12.4822 2.31083 12.8497 1.16083 12.7605 0C11.6222 0.12 10.5697 0.664167 9.81469 1.52417C9.06886 2.37333 8.69052 3.48333 8.76386 4.61167C9.91803 4.62333 11.0139 4.105 11.7372 3.20583Z" fill="black"/>
</svg>
