<svg width="17" height="16" viewBox="0 0 17 16" fill="none" xmlns="http://www.w3.org/2000/svg">
<path d="M10.8016 1.33325V3.99992M5.46826 1.33325V3.99992" stroke="#3C95DE" stroke-width="1.5" stroke-linecap="round" stroke-linejoin="round"/>
<path d="M8.80143 2.66675H7.4681C4.95394 2.66675 3.69687 2.66675 2.91581 3.44779C2.13477 4.22885 2.13477 5.48592 2.13477 8.00008V9.33341C2.13477 11.8475 2.13477 13.1047 2.91581 13.8857C3.69687 14.6667 4.95394 14.6667 7.4681 14.6667H8.80143C11.3156 14.6667 12.5727 14.6667 13.3537 13.8857C14.1348 13.1047 14.1348 11.8475 14.1348 9.33341V8.00008C14.1348 5.48592 14.1348 4.22885 13.3537 3.44779C12.5727 2.66675 11.3156 2.66675 8.80143 2.66675Z" stroke="#3C95DE" stroke-width="1.5" stroke-linecap="round" stroke-linejoin="round"/>
<path d="M2.13477 6.66675H14.1348" stroke="#3C95DE" stroke-width="1.5" stroke-linecap="round" stroke-linejoin="round"/>
<path d="M8.13193 9.33325H8.13793M8.13193 11.9999H8.13793M10.7956 9.33325H10.8016M5.46826 9.33325H5.47424M5.46826 11.9999H5.47424" stroke="#3C95DE" stroke-width="2" stroke-linecap="round" stroke-linejoin="round"/>
</svg>
