<svg width="25" height="25" viewBox="0 0 25 25" fill="none" xmlns="http://www.w3.org/2000/svg">
<g clip-path="url(#clip0_1156_5464)">
<path d="M12.812 1.10742C6.33451 1.10742 1.06201 6.37742 1.06201 12.8574C1.06201 19.3349 6.33451 24.6074 12.812 24.6074C19.292 24.6074 24.5645 19.3349 24.5645 12.8574C24.5645 6.37742 19.292 1.10742 12.812 1.10742ZM16.6595 16.7024C16.4648 16.8974 16.207 16.9949 15.952 16.9949C15.697 16.9949 15.4395 16.8974 15.2448 16.7024L12.1045 13.5624C11.917 13.3749 11.812 13.1224 11.812 12.8574V8.83242C11.812 8.27992 12.2595 7.83242 12.812 7.83242C13.3645 7.83242 13.812 8.27992 13.812 8.83242V12.4424L16.6595 15.2899C17.0495 15.6799 17.0495 16.3124 16.6595 16.7024Z" fill="white"/>
</g>
<defs>
<clipPath id="clip0_1156_5464">
<rect width="24" height="24" fill="white" transform="translate(0.812012 0.857422)"/>
</clipPath>
</defs>
</svg>
