<svg width="21" height="21" viewBox="0 0 21 21" fill="none" xmlns="http://www.w3.org/2000/svg">
<path d="M13.312 10.7155C13.312 9.79499 14.0582 9.04883 14.9787 9.04883C16.8196 9.04883 18.312 10.5412 18.312 12.3822C18.312 14.2231 16.8196 15.7155 14.9787 15.7155C14.0582 15.7155 13.312 14.9693 13.312 14.0488V10.7155Z" fill="#01549B" stroke="#01549B" stroke-width="1.5"/>
<path d="M8.31201 10.7155C8.31201 9.79499 7.56582 9.04883 6.64534 9.04883C4.80439 9.04883 3.31201 10.5412 3.31201 12.3822C3.31201 14.2231 4.80439 15.7155 6.64534 15.7155C7.56582 15.7155 8.31201 14.9693 8.31201 14.0488V10.7155Z" fill="#01549B" stroke="#01549B" stroke-width="1.5"/>
<path d="M3.31201 12.3828V9.88281C3.31201 5.74068 6.66988 2.38281 10.812 2.38281C14.9542 2.38281 18.312 5.74068 18.312 9.88281V13.9213C18.312 15.5949 18.312 16.4316 18.0183 17.0842C17.6841 17.8269 17.0894 18.4216 16.3468 18.7558C15.6942 19.0495 14.8574 19.0495 13.1838 19.0495H10.812" stroke="#01549B" stroke-width="1.5" stroke-linecap="round" stroke-linejoin="round"/>
</svg>
