<svg width="20" height="20" viewBox="0 0 20 20" fill="none" xmlns="http://www.w3.org/2000/svg">
<path d="M1.95948 11.0116C1.6653 9.09716 1.51821 8.14002 1.88013 7.29148C2.24205 6.44293 3.04501 5.86235 4.65094 4.70121L5.85081 3.83366C7.84856 2.38922 8.84741 1.66699 9.99999 1.66699C11.1526 1.66699 12.1514 2.38922 14.1492 3.83366L15.3491 4.70121C16.955 5.86235 17.7579 6.44293 18.1198 7.29148C18.4817 8.14002 18.3347 9.09716 18.0405 11.0116L17.7897 12.644C17.3726 15.3577 17.1641 16.7147 16.1908 17.5242C15.2176 18.3337 13.7947 18.3337 10.949 18.3337H9.05099C6.20527 18.3337 4.78241 18.3337 3.80916 17.5242C2.8359 16.7147 2.62738 15.3577 2.21035 12.644L1.95948 11.0116Z" fill="white"/>
<path d="M8.3334 15H11.6667" stroke="#244FF2" stroke-width="1.5" stroke-linecap="round" stroke-linejoin="round"/>
</svg>
