<svg width="21" height="21" viewBox="0 0 21 21" fill="none" xmlns="http://www.w3.org/2000/svg">
<path d="M10.812 2.62109C6.34831 2.62109 2.71704 6.25236 2.71704 10.7161C2.71704 15.1798 6.34831 18.811 10.812 18.811C15.2757 18.811 18.907 15.1798 18.907 10.7161C18.907 6.25236 15.2757 2.62109 10.812 2.62109ZM13.196 11.7354L11.6842 15.0111C11.5642 15.2715 11.3038 15.4381 11.0171 15.4381H10.8734C10.4673 15.4381 10.1381 15.1089 10.1381 14.7028V13.1075C10.1381 12.872 10.0443 12.646 9.87772 12.4794L9.07497 11.6767C8.89148 11.4932 8.78827 11.2443 8.78827 10.9852V10.3356C8.78827 10.1474 8.71339 9.9666 8.57982 9.83304L8.3282 9.58142C8.19059 9.4438 8.00441 9.3669 7.81013 9.3669H6.49537C6.23633 9.3669 5.98876 9.26099 5.80999 9.07279L4.69154 7.89699C5.7621 5.58318 8.09952 3.97026 10.812 3.97026C10.951 3.97026 11.0866 3.98307 11.2228 3.99117C10.8633 4.53623 10.5375 5.03744 10.3398 5.3437C10.215 5.53596 10.2123 5.78083 10.3304 5.97781L10.895 6.91952C11.0447 7.16844 11.0049 7.48752 10.7999 7.69327L10.7978 7.69529C10.6049 7.88822 10.3108 7.93612 10.0666 7.81402L9.47297 7.5172C9.26587 7.41332 9.0156 7.45447 8.85168 7.61771L8.49483 7.97457C8.28436 8.18504 8.28436 8.5257 8.49483 8.7355L8.89418 9.13485C9.04259 9.28325 9.24429 9.3669 9.45408 9.3669H10.4194C10.6764 9.3669 10.928 9.43908 11.1459 9.57535L12.8742 10.6554C13.2378 10.8827 13.3761 11.3454 13.196 11.7354ZM15.8876 10.8915C15.6636 10.7801 15.4997 10.5764 15.439 10.3336L15.016 8.6424C14.9236 8.27273 15.0875 7.8862 15.4174 7.69597L16.4852 7.08007C17.1612 8.1304 17.5578 9.37702 17.5578 10.7161C17.5578 11.0453 17.5261 11.3657 17.4802 11.6821L15.8876 10.8915Z" fill="#01549B"/>
</svg>
