<svg width="33" height="33" viewBox="0 0 33 33" fill="none" xmlns="http://www.w3.org/2000/svg">
<rect x="0.611359" y="0.71582" width="32" height="32" rx="16" fill="#D9D9D9"/>
<path d="M10.1679 22.4197C10.3553 23.8117 11.5081 24.9021 12.9111 24.9666C14.0916 25.0208 15.2908 25.0492 16.6114 25.0492C17.9319 25.0492 19.1311 25.0208 20.3116 24.9666C21.7146 24.9021 22.8674 23.8117 23.0549 22.4197C23.1772 21.5114 23.278 20.5805 23.278 19.6325C23.278 18.6845 23.1772 17.7536 23.0549 16.8452C22.8674 15.4533 21.7146 14.3629 20.3116 14.2984C19.1311 14.2441 17.9319 14.2158 16.6114 14.2158C15.2908 14.2158 14.0916 14.2441 12.9111 14.2984C11.5081 14.3629 10.3553 15.4533 10.1679 16.8452C10.0456 17.7536 9.94469 18.6845 9.94469 19.6325C9.94469 20.5805 10.0456 21.5114 10.1679 22.4197Z" fill="white"/>
<path d="M12.8614 14.2161V12.1328C12.8614 10.0617 14.5403 8.38281 16.6114 8.38281C18.6824 8.38281 20.3614 10.0617 20.3614 12.1328V14.2161" stroke="white" stroke-width="1.5" stroke-linecap="round" stroke-linejoin="round"/>
<path d="M16.6081 19.6328H16.6156" stroke="#E3E3E3" stroke-width="2" stroke-linecap="round" stroke-linejoin="round"/>
</svg>
