<svg width="21" height="20" viewBox="0 0 21 20" fill="none" xmlns="http://www.w3.org/2000/svg">
<g clip-path="url(#clip0_593_7356)">
<path d="M10.25 11.4104C11.5391 11.4104 12.7305 11.0471 13.6836 10.4299C14.4219 9.95727 15.3829 10.0354 16.0313 10.6252C17.8321 12.2581 18.8555 14.5745 18.8516 17.0081V18.051C18.8516 19.1291 17.9766 20.0002 16.8985 20.0002H3.60161C2.52348 20.0002 1.64848 19.1291 1.64848 18.051V17.0081C1.64067 14.5784 2.66411 12.2581 4.46489 10.6291C5.11333 10.0393 6.07817 9.96118 6.81255 10.4338C7.76958 11.0471 8.95708 11.4104 10.25 11.4104Z" fill="white"/>
<path d="M10.25 9.67188C12.9208 9.67188 15.0859 7.50675 15.0859 4.83594C15.0859 2.16512 12.9208 0 10.25 0C7.57919 0 5.41406 2.16512 5.41406 4.83594C5.41406 7.50675 7.57919 9.67188 10.25 9.67188Z" fill="white"/>
</g>
<defs>
<clipPath id="clip0_593_7356">
<rect width="20" height="20" fill="white" transform="translate(0.25)"/>
</clipPath>
</defs>
</svg>
